<svg version="1.1" xmlns="http://www.w3.org/2000/svg" viewBox="0 0 22 22"><path fill="#FFFFFF" stroke="#B0BEC4" d="M2.5,0.5h17c1.105,0,2,0.895,2,2v17c0,1.105-0.895,2-2,2h-17 c-1.105,0-2-0.895-2-2v-17C0.5,1.395,1.395,0.5,2.5,0.5z"/><path id="Checkmark-2" fill="#4FBEE3" d="M8.82,17.206l-4.061-4.061c-0.345-0.344-0.345-0.903,0-1.248l1.248-1.248 c0.344-0.345,0.904-0.345,1.248,0l1.917,1.917l6.625-8.718c0.295-0.388,0.849-0.463,1.236-0.169l1.406,1.068 c0.388,0.295,0.464,0.848,0.169,1.236l-8.461,11.132C9.823,17.542,9.199,17.584,8.82,17.206"/></svg>